<svg width="90" height="90" viewBox="0 0 90 90" fill="none" xmlns="http://www.w3.org/2000/svg">
<path d="M34.0875 33.75C34.9691 31.2438 36.7093 29.1304 38.9998 27.7842C41.2903 26.4381 43.9834 25.946 46.6019 26.3952C49.2205 26.8443 51.5956 28.2057 53.3065 30.2382C55.0175 32.2707 55.954 34.8432 55.95 37.5C55.95 45 44.7 48.75 44.7 48.75M45 63.75H45.0375M82.5 45C82.5 65.7107 65.7107 82.5 45 82.5C24.2893 82.5 7.5 65.7107 7.5 45C7.5 24.2893 24.2893 7.5 45 7.5C65.7107 7.5 82.5 24.2893 82.5 45Z" stroke="#1E1E1E" stroke-width="4" stroke-linecap="round" stroke-linejoin="round"/>
</svg>
